<?xml version="1.0" encoding="utf-8"?>
<!-- Generator: Adobe Illustrator 23.1.0, SVG Export Plug-In . SVG Version: 6.00 Build 0)  -->
<svg version="1.1" id="Layer_1" xmlns="http://www.w3.org/2000/svg" xmlns:xlink="http://www.w3.org/1999/xlink" x="0px" y="0px"
	 viewBox="0 0 300.5 57.1" style="enable-background:new 0 0 300.5 57.1;" xml:space="preserve">
<style type="text/css">
	.st0{fill:#8303D6;}
	.st1{fill:#EFEFEF;}
	.st2{fill:none;}
</style>
<path class="st0" d="M93,28.2c-1.1-1.4-2.6-2.5-4.4-3.2c3.2-1.9,4.8-4.4,4.8-7.6c0-1.6-0.5-3.2-1.4-4.7c-0.9-1.5-2.2-2.7-3.9-3.6
	c-1.7-0.9-3.5-1.3-5.4-1.3c-2.7,0-4.9,0.8-6.9,2.5C74,11.8,72.8,14,72,16.7L63.8,36l-9.9-22.4h-0.7L43.3,36l-9.5-22.4h-4.1
	l13.2,30.9h0.7l9.9-22.1l9.9,22.1h0.7l13.1-30.1c0.4-0.6,0.9-1.1,1.4-1.5c1.2-0.9,2.5-1.3,4.1-1.3c2,0,3.6,0.6,4.9,1.8
	c1.3,1.2,1.9,2.6,1.9,4.2c0,1.1-0.3,2.1-0.9,3c-0.6,0.9-1.6,1.7-3,2.3s-2.9,0.9-4.6,0.9V27c2.9,0.2,5,0.5,6.4,1.2
	c1.4,0.6,2.5,1.6,3.3,2.8c0.8,1.3,1.2,2.6,1.2,4c0,2.2-0.8,4-2.4,5.7c-1.6,1.6-3.8,2.4-6.5,2.4c-2.4,0-4.3-0.7-5.8-2
	c-1.2-1.1-2.1-2.8-2.7-5.2h-3.6c0.7,3.6,2.1,6.3,4.2,8.1c2.1,1.8,4.8,2.8,8,2.8c2.4,0,4.5-0.5,6.4-1.6c1.9-1,3.4-2.5,4.5-4.4
	c1.1-1.9,1.7-3.9,1.7-6C95.4,32.3,94.6,30.1,93,28.2z"/>
<g>
	<g>
		<polygon class="st1" points="19.8,43.5 5.6,29.3 24.9,17.5 27.1,21 12.3,30.1 22.7,40.5 		"/>
	</g>
</g>
<g>
	<g>
		<polygon class="st1" points="276.6,43.5 274.4,39.9 289.2,30.8 278.8,20.4 281.7,17.5 295.9,31.6 		"/>
	</g>
</g>
<g>
	<g>
		
			<rect x="248.6" y="28.4" transform="matrix(0.4668 -0.8844 0.8844 0.4668 115.9183 253.1724)" class="st1" width="38.6" height="4.2"/>
	</g>
</g>
<polygon class="st2" points="206.1,100.8 189.4,100.8 189.4,100.8 "/>
<g>
	<path class="st1" d="M127.6,29.6l-21.4,3.2c0.8,4.5,2.1,7.6,4,9.3c2.1,1.8,4.6,2.5,7.5,2.1c4.2-0.6,7.2-3.5,9-8.6l2.2,0.6
		c-2.2,6.5-6.3,10.2-12.1,11c-4,0.6-7.6-0.4-10.7-2.9c-3.2-2.5-5.1-6-5.7-10.5c-0.7-4.8,0.1-9,2.3-12.4c2.2-3.4,5.3-5.4,9.3-5.9
		c2.9-0.4,5.5,0,7.8,1.1c2.3,1.2,4.2,3.1,5.7,5.7C126.4,24.2,127.1,26.6,127.6,29.6z M105.9,30.5l13-1.9c0.8-0.1,1.3-0.5,1.7-1
		c0.3-0.6,0.4-1.5,0.2-2.8c-0.3-2.3-1.4-4.2-3.1-5.6c-1.7-1.4-3.5-2-5.5-1.7c-2.2,0.3-3.9,1.6-5.2,3.8
		C105.7,23.4,105.4,26.5,105.9,30.5z"/>
</g>
<g>
	<path class="st1" d="M168.2,42.6c1.2,0,2-0.7,2.4-2.2c0.5-1.5,0.7-3.2,0.7-5.2h1c0,4.3-0.8,7.2-2.3,8.6s-2.9,2.3-4.2,2.6
		c-1.2,0.4-2.8,0.6-4.7,0.6c-2.1,0-4-0.5-5.6-1.6c-1.6-1.1-2.6-2.5-3-4.4c-0.8,2-2.1,3.5-3.9,4.5c-1.8,1-4.2,1.5-7.2,1.5
		c-3.1,0-5.7-0.9-7.7-2.6c-2-1.7-2.9-4.1-2.9-7.2c0-2.5,0.6-4.4,1.8-5.9c1.2-1.5,2.5-2.4,3.8-2.8c1.3-0.3,3.2-0.6,5.9-0.9
		c2.7-0.2,4.6-0.5,5.9-0.8c1.3-0.3,2.1-0.7,2.7-1c0.5-0.4,0.8-1,0.8-1.9l-0.1-6.7c0-1.9-0.2-3.3-0.7-4.1c-0.5-0.8-1.5-1.3-3.1-1.3
		c-1,0-1.8,0.2-2.4,0.7s-1,1-1,1.7c0,0.5,0.5,1.2,1.6,2c1,0.8,1.6,2,1.6,3.7c0,1.5-0.7,2.9-2,4.1s-3.6,1.8-6.6,1.8
		c-1.7,0-3.1-0.5-4.4-1.4c-1.3-0.9-1.9-2.1-1.9-3.7c0-3.1,1.7-5.5,5.1-7.3c3.4-1.8,7.5-2.7,12.2-2.7c4,0,7.7,0.8,11,2.5
		c3.3,1.7,5,4.2,5,7.7v17c0,1.6,0.1,2.8,0.4,3.6C166.6,42.2,167.2,42.6,168.2,42.6z M151.6,40.4V26.3l-0.2-0.1
		c-0.4,0.6-1.3,1.1-2.4,1.7c-1.2,0.5-2,1-2.5,1.5c-0.5,0.5-0.8,1.4-1.1,2.8c-0.3,1.4-0.4,2.8-0.4,4.3c0,2.2,0.2,4,0.5,5.3
		c0.3,1.3,1.1,2,2.3,2c0.9,0,1.7-0.4,2.4-1.1C151,42,151.4,41.2,151.6,40.4z"/>
</g>
<g>
	<path class="st1" d="M171.8,23.3c0-3.7-0.1-6.9-0.4-9.8h7.2l0.3,6.2h0.4c2-4.2,7-6.9,12.5-6.9c0.9,0,1.6,0.1,2.3,0.2v5.4
		c-0.8-0.1-1.7-0.2-2.8-0.2c-5.8,0-9.9,3-11,7.3c-0.2,0.8-0.4,1.7-0.4,2.7v16.7h-8.1V23.3z"/>
</g>
<g>
	<path class="st1" d="M204.8,7.7H191V3.5h33.6v4.2h-13.9v41h-5.9V7.7z"/>
</g>
<g>
	<path class="st1" d="M230.8,5.6l9.1,1.3l-2.4,16.7l0.1,0c1.1-1.1,2.5-2,4-2.5c1.5-0.5,3.2-0.7,4.9-0.5c5.8,0.8,9.7,5.5,8.4,14.3
		l-2.5,17.1l-9.1-1.3l2.3-16.1c0.6-3.8-0.4-6.7-3.8-7.1c-2.4-0.3-4.1,1-5,2.5c-0.3,0.6-0.5,1.3-0.6,2l-2.5,17.4l-9.1-1.3L230.8,5.6z
		"/>
</g>
</svg>
