<?xml version="1.0" encoding="utf-8"?>
<!-- Generator: Adobe Illustrator 23.1.0, SVG Export Plug-In . SVG Version: 6.00 Build 0)  -->
<svg version="1.1" id="Layer_1" xmlns="http://www.w3.org/2000/svg" xmlns:xlink="http://www.w3.org/1999/xlink" x="0px" y="0px"
	 viewBox="0 0 351 110" style="enable-background:new 0 0 351 110;" xml:space="preserve">
<style type="text/css">
	.st0{fill:#300449;}
	.st1{fill:#FDD02B;}
	.st2{fill:#E66A1F;}
	.st3{fill:#FFFFFF;}
	.st4{fill:#27272F;}
	.st5{fill:#3577C1;}
</style>
<rect x="142.62" y="21.21" class="st0" width="175.41" height="63.53"/>
<rect x="276" y="29" class="st1" width="12" height="4"/>
<rect x="177.15" y="21.21" class="st2" width="99.31" height="63.53"/>
<path class="st3" d="M215.08,62.22h3.01c-2.54,3.16-4.88,5.37-7.04,6.64c-3.07,1.78-6.56,2.67-10.47,2.67
	c-4.14,0-7.97-0.98-11.47-2.94c-3.5-1.96-6.23-4.63-8.19-8.02c-1.96-3.39-2.94-7.09-2.94-11.11c0-4.07,0.99-7.86,2.97-11.36
	c1.98-3.5,4.67-6.23,8.08-8.17c3.41-1.94,7.13-2.91,11.18-2.91c5.71,0,10.54,1.83,14.48,5.5c3.94,3.66,5.9,7.93,5.9,12.8
	c0,3.54-0.82,6.6-2.46,9.16c-1.64,2.57-3.86,4.56-6.66,5.98c-2.14,1.1-3.97,1.65-5.48,1.65c-1.1,0-1.97-0.29-2.61-0.88
	c-0.49-0.43-0.75-1.19-0.77-2.27c-0.64,0.81-1.53,1.5-2.65,2.04c-1.13,0.55-2.29,0.82-3.5,0.82c-2.72,0-4.98-0.94-6.75-2.83
	c-1.78-1.89-2.67-4.38-2.67-7.49c0-3.35,1.08-6.41,3.23-9.18c2.16-2.77,5.12-4.15,8.91-4.15c1.66,0,3.06,0.31,4.18,0.94
	c1.13,0.62,2.19,1.71,3.19,3.26l0.75-3.91h3.07l-3.29,18.56c-0.09,0.61-0.14,1-0.14,1.17c0,0.44,0.13,0.79,0.4,1.04
	c0.26,0.25,0.61,0.38,1.02,0.38c1.12,0,2.57-0.65,4.36-1.95c1.79-1.3,3.18-2.96,4.17-5c0.99-2.04,1.49-4.3,1.49-6.78
	c0-4.81-1.86-8.8-5.59-11.96c-3.48-2.94-7.72-4.4-12.72-4.4c-3.71,0-7.07,0.85-10.09,2.54c-3.02,1.7-5.4,4.08-7.15,7.16
	c-1.75,3.08-2.63,6.41-2.63,9.99c0,3.62,0.88,6.96,2.64,10.01c1.76,3.06,4.2,5.46,7.31,7.2c3.11,1.74,6.54,2.61,10.29,2.61
	c2.74,0,5.23-0.49,7.47-1.48C210.13,66.57,212.53,64.79,215.08,62.22z M197.88,58.61c1.25,0,2.42-0.39,3.52-1.18
	c1.1-0.79,1.97-1.97,2.61-3.54c0.83-2.07,1.25-4.15,1.25-6.23c0-1.91-0.53-3.46-1.6-4.65c-1.07-1.19-2.45-1.79-4.16-1.79
	c-2.27,0-4.23,0.93-5.89,2.8c-1.66,1.87-2.48,4.19-2.48,6.98c0,2.33,0.63,4.18,1.89,5.56C194.27,57.93,195.89,58.61,197.88,58.61z"
	/>
<path class="st3" d="M225.07,28.98h8.32c4.64,0,7.78,0.19,9.42,0.57c2.48,0.57,4.49,1.79,6.05,3.65c1.55,1.87,2.33,4.16,2.33,6.89
	c0,2.27-0.54,4.27-1.6,6c-1.07,1.72-2.6,3.03-4.58,3.91c-1.99,0.88-4.73,1.33-8.23,1.35l15.02,19.39h-5.16L231.6,51.35h-2.36v19.39
	h-4.17V28.98z M229.25,33.07v14.19l7.19,0.06c2.79,0,4.85-0.26,6.18-0.79c1.34-0.53,2.38-1.38,3.13-2.54
	c0.75-1.16,1.12-2.46,1.12-3.9c0-1.4-0.38-2.67-1.14-3.82c-0.76-1.14-1.75-1.96-2.99-2.46c-1.23-0.49-3.28-0.74-6.14-0.74H229.25z"
	/>
<path class="st3" d="M253.58,33.07v-4.09h22.88v4.09h-9.31v37.67h-4.26V33.07H253.58z"/>
<path class="st4" d="M344,99.66l-0.25-2.83c-0.11,0.01-10.43,0.82-17.93-5.3l-0.07-12.47h15.97V76.2h-15.99l-0.13-24.55V15.19
	c9.19-6.23,16.61-5.61,16.69-5.6l0.29-2.83c-0.07-0.01-0.48-0.05-1.16-0.04c-2.61,0.01-9.31,0.65-17.26,6
	c-8.31-6.57-19.07-5.76-19.54-5.72l0.23,2.83c0.11-0.01,10.26-0.75,17.7,5.25l0.2,36.59V76.2h-16.12v2.84h16.12v12.38
	c-9.31,6.32-16.84,5.65-16.91,5.65l-0.31,2.83c0.07,0.01,0.48,0.05,1.16,0.05c2.64,0,9.45-0.62,17.52-6.06
	C332.6,100.58,343.53,99.7,344,99.66z"/>
<path class="st3" d="M213.87,66.75c0,0,5.55-5.72,7.44-6.67c1.9-0.95,3.73,0,3.76,4.74s2.88-6.64,2.88-6.64s-4.74-6.64-14.22,5.69
	L213.87,66.75z"/>
<path class="st5" d="M93.74,51.11c-1.14-1.39-2.6-2.45-4.38-3.17c3.17-1.86,4.76-4.39,4.76-7.58c0-1.63-0.46-3.19-1.37-4.68
	c-0.92-1.49-2.21-2.68-3.88-3.56c-1.67-0.88-3.47-1.32-5.4-1.32c-2.65,0-4.95,0.82-6.9,2.47c-1.8,1.52-3.06,3.66-3.78,6.4
	L64.51,58.9l-9.92-22.43h-0.72L44.01,58.9l-9.47-22.43h-4.09l13.19,30.88h0.74l9.87-22.11l9.87,22.11h0.74l13.09-30.13
	c0.43-0.61,0.89-1.11,1.38-1.49c1.16-0.9,2.53-1.35,4.13-1.35c1.96,0,3.59,0.59,4.87,1.76c1.28,1.17,1.93,2.57,1.93,4.18
	c0,1.09-0.31,2.1-0.94,3.02c-0.63,0.92-1.64,1.68-3.03,2.28c-1.39,0.6-2.94,0.89-4.63,0.89v3.4c2.87,0.15,4.99,0.55,6.36,1.18
	c1.37,0.64,2.46,1.59,3.27,2.84c0.81,1.26,1.22,2.61,1.22,4.05c0,2.17-0.81,4.05-2.44,5.66c-1.63,1.61-3.78,2.42-6.47,2.42
	c-2.37,0-4.31-0.68-5.84-2.04c-1.19-1.07-2.11-2.81-2.74-5.21h-3.62c0.65,3.56,2.05,6.26,4.18,8.09c2.13,1.84,4.79,2.76,7.98,2.76
	c2.37,0,4.51-0.52,6.42-1.56c1.91-1.04,3.42-2.51,4.53-4.42c1.11-1.9,1.66-3.91,1.66-6C96.16,55.27,95.35,53.07,93.74,51.11z"/>
<g>
	<g>
		<g>
			<polygon class="st4" points="19.79,63.92 5.59,49.73 24.91,37.92 27.08,41.47 12.26,50.52 22.72,60.98 			"/>
		</g>
	</g>
	<g>
		<g>
			<polygon class="st4" points="121.89,64.23 119.73,60.68 134.54,51.62 124.08,41.17 127.02,38.23 141.21,52.42 			"/>
		</g>
	</g>
	<g>
		<g>
			
				<rect x="93.93" y="43.31" transform="matrix(0.4668 -0.8844 0.8844 0.4668 20.2374 124.3348)" class="st4" width="38.6" height="4.16"/>
		</g>
	</g>
</g>
<g>
	<g>
		<path class="st1" d="M172.64,54.31l3.49,2.08c-1.15,2.55-2.47,4.6-3.97,6.17c-1.5,1.56-3.19,2.75-5.07,3.57
			c-1.88,0.82-4,1.22-6.37,1.22c-5.26,0-9.37-1.95-12.33-5.85s-4.45-8.31-4.45-13.23c0-4.63,1.25-8.75,3.76-12.37
			c3.18-4.6,7.44-6.91,12.77-6.91c5.49,0,9.88,2.36,13.16,7.07c2.33,3.33,3.52,7.49,3.56,12.47h-28.99
			c0.08,4.24,1.27,7.71,3.59,10.42c2.31,2.71,5.17,4.06,8.57,4.06c1.64,0,3.24-0.32,4.79-0.97c1.55-0.64,2.87-1.5,3.96-2.57
			C170.2,58.42,171.37,56.69,172.64,54.31z M172.64,44.49c-0.55-2.5-1.36-4.5-2.42-6c-1.06-1.5-2.46-2.7-4.2-3.62
			c-1.74-0.92-3.57-1.37-5.48-1.37c-3.16,0-5.88,1.15-8.15,3.45c-1.66,1.68-2.92,4.19-3.77,7.54H172.64z"/>
	</g>
</g>
<polygon style="fill:none;" points="206.07,122.89 189.44,122.89 189.44,122.89 206.07,122.89 "/>
<g>
	<path class="st1" d="M284.66,29h3.89v17.38c1.58-2.08,3.31-3.63,5.2-4.66c1.89-1.03,3.94-1.54,6.14-1.54
		c2.26,0,4.27,0.57,6.02,1.72c1.75,1.15,3.04,2.69,3.88,4.63c0.83,1.94,1.25,4.97,1.25,9.11v15.57h-3.89V56.78
		c0-3.48-0.14-5.81-0.42-6.98c-0.48-2-1.36-3.51-2.63-4.52c-1.27-1.01-2.93-1.52-4.99-1.52c-2.35,0-4.46,0.78-6.33,2.34
		c-1.86,1.56-3.09,3.49-3.68,5.78c-0.37,1.48-0.56,4.23-0.56,8.23v11.09h-3.89V29z"/>
</g>
</svg>
