<?xml version="1.0" encoding="UTF-8" standalone="no"?> <svg height="504pt" viewBox="-16 -26 504.00134 504" width="504pt" xmlns="http://www.w3.org/2000/svg"><path d="m461.25 339.328125c6.214844 0 11.25-5.039063 11.25-11.25 0-116-84.039062-212.75-194.433594-232.539063-3.640625-20.238281-21.253906-34.960937-41.816406-34.960937-20.558594 0-38.167969 14.722656-41.8125 34.960937-110.390625 19.789063-194.43359375 116.539063-194.43359375 232.539063 0 6.210937 5.03906275 11.25 11.24999975 11.25h163.75v27.5h-101.734375c-11.019531-.027344-21.445312 4.984375-28.304687 13.605469l-42.5 53.113281c-2.703125 3.378906-3.226563 8.007813-1.351563 11.902344 1.875 3.902343 5.816407 6.378906 10.140625 6.378906h449.996094c4.324219 0 8.265625-2.480469 10.140625-6.378906 1.875-3.894531 1.347656-8.523438-1.359375-11.902344l-42.5-53.113281c-6.859375-8.621094-17.277344-13.628906-28.292969-13.605469h-101.738281v-27.5zm-225-256.246094c6.871094.003907 13.257812 3.539063 16.90625 9.359375-5.582031-.398437-11.214844-.609375-16.90625-.609375-5.683594 0-11.316406.210938-16.902344.609375 3.652344-5.820312 10.035156-9.355468 16.902344-9.359375zm0 31.25c114.085938 0 207.582031 89.847657 213.457031 202.496094h-426.910156c5.875-112.648437 99.371094-202.496094 213.453125-202.496094zm-201.585938 314.996094 7-8.75h389.179688l7 8.75zm375.3125-34.84375 2.871094 3.59375h-353.1875l2.878906-3.589844c2.601563-3.269531 6.554688-5.167969 10.734376-5.160156h325.964843c4.179688-.007813 8.128907 1.890625 10.738281 5.15625zm-134.976562-27.65625h-77.496094v-27.5h77.496094zm0 0"/><path d="m247.5 34.332031v-23.75c0-6.214843-5.03125-11.25-11.25-11.25-6.210938 0-11.25 5.035157-11.25 11.25v23.75c0 6.210938 5.039062 11.25 11.25 11.25 6.21875 0 11.25-5.039062 11.25-11.25zm0 0"/><path d="m276.46875 62.238281c2.984375.003907 5.847656-1.183593 7.957031-3.296875l16.789063-16.792968c4.394531-4.394532 4.394531-11.515626 0-15.90625-4.386719-4.394532-11.511719-4.394532-15.90625 0l-16.792969 16.792968c-3.214844 3.214844-4.179687 8.054688-2.441406 12.257813 1.746093 4.207031 5.847656 6.945312 10.394531 6.945312zm0 0"/><path d="m196.039062 62.238281c4.546876 0 8.648438-2.738281 10.386719-6.945312 1.746094-4.203125.78125-9.042969-2.433593-12.257813l-16.792969-16.792968c-4.394531-4.394532-11.519531-4.394532-15.914063 0-4.394531 4.390624-4.394531 11.511718 0 15.90625l16.796875 16.792968c2.105469 2.113282 4.972657 3.300782 7.957031 3.296875zm0 0"/><path d="m303.167969 186.605469c20.242187 13.242187 38.085937 29.808593 52.792969 49.003906 3.785156 4.925781 10.84375 5.859375 15.777343 2.082031 4.929688-3.785156 5.859375-10.847656 2.078125-15.777344-16.242187-21.203124-35.964844-39.5-58.3125-54.128906-3.363281-2.253906-7.675781-2.527344-11.300781-.714844-3.617187 1.8125-5.984375 5.425782-6.199219 9.46875-.210937 4.042969 1.761719 7.890626 5.175782 10.066407zm0 0"/></svg>