<?xml version="1.0" ?><svg id="Layer_1_1_" style="enable-background:new 0 0 64 64;" version="1.1" viewBox="0 0 64 64" xml:space="preserve" xmlns="http://www.w3.org/2000/svg" xmlns:xlink="http://www.w3.org/1999/xlink"><g><g><path d="M50,5H14c-0.553,0-1,0.447-1,1v16h2h34h2V6C51,5.447,50.553,5,50,5z" style="fill:#00F4CB;"/></g><g><path d="M62,57h-2.867l0.813-6.505C59.982,50.207,60,49.917,60,49.626v-8.253c0-0.29-0.018-0.581-0.054-0.868l-0.698-5.586    c-0.192-1.537-0.901-2.986-1.996-4.082L55,28.586V2c0-0.552-0.448-1-1-1H10C9.448,1,9,1.448,9,2v26.586l-2.251,2.251    c-1.095,1.095-1.804,2.544-1.996,4.082l-0.698,5.586C4.018,40.793,4,41.083,4,41.374v8.253c0,0.29,0.018,0.581,0.054,0.868    L4.867,57H2c-0.552,0-1,0.448-1,1v4c0,0.552,0.448,1,1,1h14c0.552,0,1-0.448,1-1v-4c0-0.552-0.448-1-1-1h-2v-3.171    c0-0.267,0.104-0.519,0.293-0.708l7.793-7.793c0.102-0.102,0.184-0.216,0.27-0.328h19.289c0.086,0.112,0.168,0.227,0.27,0.328    l7.793,7.793C49.896,53.31,50,53.562,50,53.829V57h-2c-0.552,0-1,0.448-1,1v4c0,0.552,0.448,1,1,1h14c0.552,0,1-0.448,1-1v-4    C63,57.448,62.552,57,62,57z M53,3v18H11V3H53z M11,23h42v3.586l-1.672-1.672C50.739,24.325,49.955,24,49.121,24    c-0.9,0-1.706,0.389-2.276,1h-29.69c-0.57-0.611-1.376-1-2.276-1c-0.834,0-1.618,0.325-2.207,0.914L11,26.586V23z M49.726,44.312    L48,42.586V39h4v0.056c0,0.463-0.109,0.927-0.317,1.342L49.726,44.312z M44.121,40C43.3,40,42.558,40.325,42,40.845V39h4v1.644    C45.46,40.233,44.811,40,44.121,40z M14.274,44.312l-1.957-3.914C12.109,39.983,12,39.519,12,39.056V39h4v3.586L14.274,44.312z     M28,27v4h-4v-4H28z M34,27v4h-4v-4H34z M40,27v4h-4v-4H40z M46.012,27C46.011,27.041,46,27.08,46,27.121    c0,0.201,0.021,0.399,0.058,0.592C46.03,27.806,46,27.898,46,28v3h-4v-4H46.012z M24,33h4v4h-4V33z M22,37h-4v-4h4V37z M30,33h4v4    h-4V33z M36,33h4v4h-4V33z M42,33h4v4h-4V33z M22,31h-4v-4h4V31z M16,31h-0.586L16,30.414V31z M12.878,33.536L13.414,33H16v4h-4    v-1.343C12,34.867,12.32,34.094,12.878,33.536z M18,39h4v1.845C21.442,40.325,20.7,40,19.879,40c-0.69,0-1.339,0.233-1.879,0.644    V39z M24,39h4v4h-4V39z M30,39h4v4h-4V39z M36,39h4v4h-4V39z M48,37v-4h2.586l0.536,0.536C51.68,34.094,52,34.867,52,35.657V37H48    z M48,31v-0.586L48.586,31H48z M15,61H3v-2h12V61z M12.879,51.707C12.312,52.273,12,53.027,12,53.829V57H6.883l-0.844-6.753    C6.013,50.041,6,49.833,6,49.626v-8.253c0-0.207,0.013-0.415,0.039-0.62l0.698-5.586c0.137-1.098,0.644-2.133,1.426-2.916    l2.543-2.543c0.001-0.001,0.002-0.002,0.003-0.003l3.378-3.378C14.298,26.117,14.579,26,14.879,26C15.497,26,16,26.503,16,27.121    c0,0.3-0.117,0.581-0.328,0.793l-3.379,3.379c0,0,0,0-0.001,0.001l-0.828,0.828C10.52,33.066,10,34.321,10,35.657v3.399    c0,0.772,0.183,1.545,0.528,2.236L12.382,45H11c-0.552,0-1,0.448-1,1s0.448,1,1,1h3c0.01,0,0.02-0.006,0.03-0.006    c0.063-0.002,0.123-0.023,0.186-0.037c0.067-0.015,0.134-0.025,0.196-0.053c0.011-0.005,0.024-0.004,0.035-0.009    c0.049-0.024,0.081-0.066,0.124-0.097c0.045-0.032,0.097-0.052,0.136-0.091l3-3c0,0,0,0,0.001-0.001l1.379-1.379    C19.298,42.117,19.579,42,19.879,42C20.497,42,21,42.503,21,43.121c0,0.3-0.117,0.581-0.328,0.793L12.879,51.707z M51.121,51.707    l-7.793-7.793C43.117,43.702,43,43.421,43,43.121C43,42.503,43.503,42,44.121,42c0.3,0,0.581,0.117,0.793,0.328l1.379,1.379    c0,0,0,0,0.001,0.001l3,3c0.039,0.039,0.091,0.059,0.136,0.091c0.043,0.031,0.075,0.072,0.124,0.097    c0.011,0.006,0.024,0.004,0.035,0.009c0.062,0.028,0.129,0.038,0.196,0.053c0.063,0.014,0.123,0.035,0.186,0.037    C49.98,46.994,49.99,47,50,47h3c0.552,0,1-0.448,1-1s-0.448-1-1-1h-1.382l1.854-3.708C53.817,40.601,54,39.828,54,39.056v-3.399    c0-1.335-0.52-2.591-1.464-3.535l-0.828-0.828c0,0,0,0-0.001-0.001l-3.379-3.379C48.117,27.702,48,27.421,48,27.121    C48,26.503,48.503,26,49.121,26c0.3,0,0.581,0.117,0.793,0.328l3.378,3.378c0.001,0.001,0.002,0.002,0.003,0.003l2.543,2.543    c0.782,0.782,1.289,1.818,1.426,2.916l0.698,5.586C57.987,40.959,58,41.167,58,41.374v8.253c0,0.207-0.013,0.415-0.039,0.62    L57.117,57H52v-3.171C52,53.027,51.688,52.273,51.121,51.707z M61,61H49v-2h12V61z"/><path d="M18,11h18c0.552,0,1-0.448,1-1s-0.448-1-1-1H18c-0.552,0-1,0.448-1,1S17.448,11,18,11z"/><path d="M18,19h12c0.552,0,1-0.448,1-1s-0.448-1-1-1H18c-0.552,0-1,0.448-1,1S17.448,19,18,19z"/><path d="M46,17H34c-0.552,0-1,0.448-1,1s0.448,1,1,1h12c0.552,0,1-0.448,1-1S46.552,17,46,17z"/><path d="M40,11h6c0.552,0,1-0.448,1-1s-0.448-1-1-1h-6c-0.552,0-1,0.448-1,1S39.448,11,40,11z"/><path d="M18,15h28c0.552,0,1-0.448,1-1s-0.448-1-1-1H18c-0.552,0-1,0.448-1,1S17.448,15,18,15z"/></g></g></svg>